Coordinates
version=1
nRows=6
nColumns=63
inDegrees=yes

Units are S.I. units (second, meters, Newtons, ...)
If the header above contains a line with 'inDegrees', this indicates whether rotational values are in degrees (yes) or radians (no).

endheader
time	pelvis_tilt	pelvis_list	pelvis_rotation	pelvis_tx	pelvis_ty	pelvis_tz	hip_flexion_r	hip_adduction_r	hip_rotation_r	knee_angle_r	knee_angle_r_beta	ankle_angle_r	subtalar_angle_r	mtp_angle_r	hip_flexion_l	hip_adduction_l	hip_rotation_l	knee_angle_l	knee_angle_l_beta	ankle_angle_l	subtalar_angle_l	mtp_angle_l	L5_S1_Flex_Ext	L5_S1_Lat_Bending	L5_S1_axial_rotation	L4_L5_Flex_Ext	L4_L5_Lat_Bending	L4_L5_axial_rotation	L3_L4_Flex_Ext	L3_L4_Lat_Bending	L3_L4_axial_rotation	L2_L3_Flex_Ext	L2_L3_Lat_Bending	L2_L3_axial_rotation	L1_L2_Flex_Ext	L1_L2_Lat_Bending	L1_L2_axial_rotation	L1_T12_Flex_Ext	L1_T12_Lat_Bending	L1_T12_axial_rotation	Abs_r3	Abs_r2	Abs_r1	Abs_t1	Abs_t2	neck_flexion	neck_bending	neck_rotation	arm_flex_r	arm_add_r	arm_rot_r	elbow_flex_r	pro_sup_r	wrist_flex_r	wrist_dev_r	arm_flex_l	arm_add_l	arm_rot_l	elbow_flex_l	pro_sup_l	wrist_flex_l	wrist_dev_l
2.644068	-1.020510	-3.750961	92.505657	0.441941	0.713976	1.016285	2.952656	-0.304241	-3.730891	7.874567	0.137437	27.950344	6.651434	0.000000	2.215666	-0.327987	-6.790354	7.871695	0.137387	30.897823	5.983417	0.000000	0.057173	-0.060462	2.650732	0.106176	-0.080415	2.816402	0.093929	-0.147008	2.816402	0.065343	-0.147008	2.319390	0.053091	-0.123294	2.153719	0.032669	-0.093656	1.988049	0.408381	-0.683959	14.742574	0.000000	0.000000	22.306279	-2.096507	-17.066772	-8.500319	-11.973520	14.301056	37.156087	77.547876	-5.891141	-0.851106	16.221248	-10.114005	86.495619	15.195926	72.424733	-1.909200	-1.257340
2.661017	-1.166014	-3.757774	92.479806	0.441996	0.713967	1.016205	3.044198	-0.526857	-4.403561	8.165441	0.142514	28.247798	7.550984	0.000000	2.226840	-0.163104	-6.723556	7.863633	0.137246	30.841566	5.843284	0.000000	0.058105	-0.080974	2.655563	0.107907	-0.107696	2.821535	0.095461	-0.196881	2.821535	0.066409	-0.196881	2.323617	0.053957	-0.165123	2.157645	0.033201	-0.125429	1.991672	0.415041	-0.915998	14.769443	0.000000	0.000000	22.228646	-2.233470	-17.578794	-8.460936	-11.889638	14.384250	37.046188	77.512166	-5.909850	-0.944508	15.988413	-10.354875	85.232435	15.649388	72.972557	-1.877114	-0.622347
2.677966	-1.294121	-3.770656	92.470157	0.442017	0.713952	1.016126	3.130334	-0.731808	-5.104040	8.427231	0.147083	28.538267	8.482762	0.000000	2.247348	-0.016267	-6.665987	7.866559	0.137297	30.785273	5.720964	0.000000	0.059431	-0.099382	2.656582	0.110369	-0.132179	2.822618	0.097639	-0.241638	2.822618	0.067923	-0.241638	2.324509	0.055187	-0.202661	2.158473	0.033959	-0.153943	1.992436	0.424508	-1.124234	14.775111	0.000000	0.000000	22.150541	-2.369381	-18.066553	-8.409210	-11.819810	14.521250	36.929914	77.417184	-5.969728	-0.998205	15.710235	-10.623371	83.692999	16.181251	73.683979	-1.845941	0.069375
2.694915	-1.398482	-3.779021	92.463097	0.442022	0.713934	1.016063	3.197398	-0.903639	-5.734870	8.644213	0.150870	28.793532	9.332345	0.000000	2.261807	0.109967	-6.558523	7.873655	0.137421	30.704533	5.506410	0.000000	0.060205	-0.115268	2.659022	0.111807	-0.153307	2.825211	0.098911	-0.280263	2.825211	0.068809	-0.280263	2.326644	0.055907	-0.235055	2.160455	0.034401	-0.178550	1.994267	0.430040	-1.303937	14.788683	0.000000	0.000000	22.050289	-2.519765	-18.585742	-8.360855	-11.756825	14.661416	36.814947	77.288508	-6.042061	-1.005440	15.404829	-10.900796	81.892925	16.762052	74.546911	-1.780379	0.828640
2.711864	-1.477784	-3.775186	92.466787	0.441993	0.713913	1.016037	3.245883	-1.054641	-6.470078	8.840355	0.154293	29.051843	10.321438	0.000000	2.269074	0.206763	-6.475782	7.903185	0.137937	30.623585	5.306686	0.000000	0.060628	-0.128345	2.659749	0.112592	-0.170698	2.825983	0.099606	-0.312057	2.825983	0.069292	-0.312057	2.327280	0.056299	-0.261721	2.161046	0.034643	-0.198806	1.994812	0.433060	-1.451861	14.792727	0.000000	0.000000	21.912665	-2.606002	-19.055803	-8.304755	-11.705783	14.832307	36.682202	77.163753	-6.136877	-0.995980	15.075812	-11.175719	79.893465	17.363059	75.553689	-1.705739	1.610271
2.728814	-1.527207	-3.753302	92.476658	0.441970	0.713875	1.016051	3.253708	-1.153300	-7.023728	8.974892	0.156641	29.244409	11.060450	0.000000	2.262215	0.268635	-6.404809	7.956915	0.138874	30.537206	5.093116	0.000000	0.060380	-0.139018	2.665516	0.112132	-0.184894	2.832110	0.099198	-0.338009	2.832110	0.069008	-0.338009	2.332326	0.056069	-0.283486	2.165731	0.034501	-0.215339	1.999137	0.431289	-1.572602	14.824798	0.000000	0.000000	21.720337	-2.660926	-19.577378	-8.259643	-11.648687	14.953203	36.533040	77.048613	-6.178633	-0.959811	14.747500	-11.427823	77.752125	17.939358	76.637915	-1.541753	2.377860
